<svg width="30" height="30" viewBox="0 0 30 30" fill="none" xmlns="http://www.w3.org/2000/svg">
<path d="M22.5 1C19.3753 1 17.0109 2.83377 15 4.75C13.0838 2.71657 10.6247 1 7.5 1C3.09936 1 0 4.78373 0 8.90971C0 11.1231 0.906569 12.7178 1.89936 14.215L13.5553 28.1894C14.8641 29.5741 15.1106 29.5741 16.4194 28.1894L28.1015 14.215C29.2687 12.7178 30 11.1231 30 8.90971C30 4.78378 26.9006 1 22.5 1ZM26.25 13.8269L15 27.25L3.75 13.7716C2.40471 11.9013 1.875 10.6394 1.875 8.90971C1.875 5.68657 4.17657 2.785 7.5 2.75779C10.2338 2.73529 13.3322 5.52716 15 7.63186C16.6238 5.6003 19.7662 2.75779 22.5 2.75779C25.7353 2.75779 28.125 5.68657 28.125 8.90971C28.125 10.6394 27.7059 11.995 26.25 13.8269Z" fill="black"/>
</svg>
