<svg width="30" height="30" viewBox="0 0 30 30" fill="none" xmlns="http://www.w3.org/2000/svg">
<g clip-path="url(#clip0_73_965)">
<path d="M22.5 27.1875H7.5C6.2568 27.1875 5.06451 26.6936 4.18544 25.8146C3.30636 24.9355 2.8125 23.7432 2.8125 22.5V9.375C2.8125 9.12636 2.91127 8.8879 3.08709 8.71209C3.2629 8.53627 3.50136 8.4375 3.75 8.4375H22.5C23.7432 8.4375 24.9355 8.93136 25.8146 9.81044C26.6936 10.6895 27.1875 11.8818 27.1875 13.125V22.5C27.1875 23.7432 26.6936 24.9355 25.8146 25.8146C24.9355 26.6936 23.7432 27.1875 22.5 27.1875ZM4.6875 10.3125V22.5C4.6875 23.2459 4.98382 23.9613 5.51126 24.4887C6.03871 25.0162 6.75408 25.3125 7.5 25.3125H22.5C23.2459 25.3125 23.9613 25.0162 24.4887 24.4887C25.0162 23.9613 25.3125 23.2459 25.3125 22.5V13.125C25.3125 12.3791 25.0162 11.6637 24.4887 11.1363C23.9613 10.6088 23.2459 10.3125 22.5 10.3125H4.6875Z" fill="white"/>
<path d="M24.3751 10.3125C24.1265 10.3125 23.888 10.2137 23.7122 10.0379C23.5364 9.86211 23.4376 9.62365 23.4376 9.37501V6.79689C23.4556 6.46847 23.3991 6.14024 23.2725 5.83668C23.1459 5.53312 22.9524 5.26208 22.7064 5.04376C22.4853 4.87816 22.2294 4.76508 21.9582 4.7131C21.6869 4.66112 21.4073 4.6716 21.1407 4.74376L5.41885 8.31564C5.20737 8.36327 5.01893 8.48271 4.8856 8.65364C4.75228 8.82457 4.68231 9.03643 4.6876 9.25314C4.6876 9.50178 4.58883 9.74024 4.41302 9.91605C4.2372 10.0919 3.99874 10.1906 3.7501 10.1906C3.50146 10.1906 3.26301 10.0919 3.08719 9.91605C2.91138 9.74024 2.8126 9.50178 2.8126 9.25314C2.8071 8.61226 3.02066 7.98872 3.4179 7.48577C3.81515 6.98282 4.37225 6.63063 4.99698 6.48751L20.7282 2.91564C21.2693 2.77884 21.8344 2.76769 22.3804 2.88307C22.9264 2.99845 23.4388 3.23728 23.8782 3.58126C24.3429 3.97562 24.713 4.46931 24.9613 5.02588C25.2095 5.58246 25.3296 6.18769 25.3126 6.79689V9.37501C25.3126 9.62365 25.2138 9.86211 25.038 10.0379C24.8622 10.2137 24.6237 10.3125 24.3751 10.3125Z" fill="white"/>
<path d="M26.25 21.5625H19.6875C18.6929 21.5625 17.7391 21.1674 17.0359 20.4641C16.3326 19.7609 15.9375 18.8071 15.9375 17.8125C15.9375 16.8179 16.3326 15.8641 17.0359 15.1609C17.7391 14.4576 18.6929 14.0625 19.6875 14.0625H26.25C26.4986 14.0625 26.7371 14.1613 26.9129 14.3371C27.0887 14.5129 27.1875 14.7514 27.1875 15V20.625C27.1875 20.8736 27.0887 21.1121 26.9129 21.2879C26.7371 21.4637 26.4986 21.5625 26.25 21.5625ZM19.6875 15.9375C19.1902 15.9375 18.7133 16.135 18.3617 16.4867C18.01 16.8383 17.8125 17.3152 17.8125 17.8125C17.8125 18.3098 18.01 18.7867 18.3617 19.1383C18.7133 19.49 19.1902 19.6875 19.6875 19.6875H25.3125V15.9375H19.6875Z" fill="white"/>
</g>
<defs>
<clipPath id="clip0_73_965">
<rect width="30" height="30" fill="white"/>
</clipPath>
</defs>
</svg>
